                Paul.2011.EXTENDED.BRRip.XviD-RLF
                ~~~~~~~~~~~~~~~~~~~~~~~~~~~~~~~~~
                                           

                            General:


         Complete name                    : rlf-paul.avi
         Format                           : AVI
         Format/Info                      : Audio Video Interleave
         File size                        : 706 MiB
         Duration                         : 1h 49mn
         Overall bit rate                 : 904 Kbps            
         Language                         : English
         Subs                             : Polish, English
         Encoder                          : Ralf

                             Video:

         Format                           : MPEG-4 Visual
         Format profile                   : Advanced Simple@L5
         Format settings, BVOP            : 2
         Format settings, QPel            : No
         Format settings, GMC             : No warppoints
         Format settings, Matrix          : H.263
         Muxing mode                      : Packed bitstream
         Codec ID/Hint                    : XviD
         Duration                         : 1h 49mn
         Bit rate                         : 763 Kbps
         Width                            : 688 pixels
         Height                           : 352 pixels
         Display aspect ratio             : 1.955
         Frame rate                       : 23.976 fps
         Color space                      : YUV
         Chroma subsampling               : 4:2:0
         Bit depth                        : 8 bits
         Scan type                        : Progressive
         Bits/(Pixel*Frame)               : 0.131
         Stream size                      : 596 MiB (84%)
         Writing library                  : XviD 1.2.1

                             Audio:

         Format                           : MPEG Audio
         Format profile                   : Layer 3
         Codec ID/Hint                    : MP3
         Duration                         : 1h 49mn
         Bit rate mode                    : Constant
         Bit rate                         : 128 Kbps
         Channel(s)                       : 2 channels
         Sampling rate                    : 48.0 KHz
         Stream size                      : 100 MiB (14%)
         Alignment                        : Split accross interleaves
         Interleave, duration             : 24 ms (0.58 video frame)
         Writing library                  : LAME3.98.4 



                           MOVIE INFO:

         Two British comic-book geeks traveling across the U.S. 
                encounter an alien outside Area 51.
                               
               http://www.imdb.com/title/tt1092026/


                             SOURCE:

              AVCHD 720p.BluRay.x264 / KinoMania (THX)


        http://www.leetleech.org/images/67123125011905363942.png
        http://www.leetleech.org/images/29230689651190444618.png
        http://www.leetleech.org/images/63601991419175463011.png
        http://www.leetleech.org/images/08750770947477713787.png
        http://www.leetleech.org/images/53434056858094944496.png